<svg width="566" height="97" viewBox="0 0 566 97" fill="none" xmlns="http://www.w3.org/2000/svg">
<path d="M43.0033 90.0635V92.4977H29.4415C29.0937 86.3542 29.0937 87.6293 25.0367 70.8224C20.4002 51.5808 19.8206 51.2336 16.4591 51.2336H16.2279V85.4269C16.2279 88.9043 16.4597 89.0203 21.7917 90.0635V92.4977H0V90.0635C5.33202 89.0203 5.56385 88.9043 5.56385 85.4269V12.6344C5.56385 9.15701 5.33202 9.04109 0 7.99787V5.56369H20.4002C32.9189 5.56369 38.8304 13.0981 38.8304 25.9639C38.8304 41.0326 31.7597 48.567 22.4866 49.8421C28.746 50.4216 30.1369 52.3922 35.2371 70.0104C40.9169 89.4839 40.3373 88.7884 43.0033 90.0635ZM27.5868 27.5873C27.5868 14.489 24.9208 8.11378 20.4002 8.11378C17.3864 8.11378 16.2273 9.38883 16.2273 16.459V48.2187H18.1978C23.8776 48.2193 27.5868 42.7713 27.5868 27.5873Z" fill="black"/>
<path d="M86.7023 90.0635V92.4977H66.1862V90.0635C74.0683 89.1362 74.0683 89.8317 72.6774 83.2246L69.4318 66.9967H54.7113L51.9294 83.2246C50.7703 89.8317 51.118 89.1362 59.1161 90.0635V92.4977H44.1632V90.0635C46.7133 88.3248 46.4815 87.7452 47.4088 83.2246L64.9111 0.347576H66.0703L83.4573 83.2246C84.4999 87.977 84.2681 88.4407 86.7023 90.0635ZM68.7363 63.7517L61.4337 27.935L55.2903 63.7517H68.7363Z" fill="black"/>
<path d="M130.981 49.1466C130.981 80.6745 121.013 92.4977 106.639 92.4977H87.8618V90.0635C93.1938 89.0203 93.4257 88.9043 93.4257 85.4269V12.6344C93.4257 9.15701 93.1938 9.04109 87.8618 7.99787V5.56369H106.639C124.606 5.56369 130.981 22.3711 130.981 49.1466ZM119.853 50.5375C119.853 22.2552 114.869 8.11378 108.262 8.11378C105.248 8.11378 104.089 9.38883 104.089 16.459V81.6018C104.089 88.5566 105.248 89.9476 108.494 89.9476C113.826 89.9476 119.853 81.1381 119.853 50.5375Z" fill="black"/>
<path d="M156.251 90.0635V92.4977H134.459V90.0635C139.791 89.0203 140.023 88.9043 140.023 85.4269V12.6344C140.023 9.15701 139.791 9.04109 134.459 7.99787V5.56369H156.251V7.99787C150.919 9.04109 150.687 9.15701 150.687 12.6344V85.4269C150.687 88.9043 150.919 89.0203 156.251 90.0635Z" fill="black"/>
<path d="M160.307 49.0306C160.307 18.6619 167.841 3.94086 180.823 3.94086C185.691 3.94086 189.632 5.91138 192.182 8.46148V31.5277H191.023C183.953 10.8951 182.446 6.49037 178.736 6.49037C173.52 6.49037 171.666 19.9363 171.666 48.2187C171.666 72.444 175.839 91.3379 180.591 91.3379C183.489 91.3379 184.184 89.0196 191.023 66.533H192.182V89.368C189.748 91.8022 185.459 93.8886 180.823 93.8886C167.841 93.8886 160.307 80.3267 160.307 49.0306Z" fill="black"/>
<path d="M238.779 90.0635V92.4977H218.263V90.0635C226.145 89.1362 226.145 89.8317 224.754 83.2246L221.509 66.9967H206.788L204.006 83.2246C202.847 89.8317 203.195 89.1362 211.193 90.0635V92.4977H196.24V90.0635C198.79 88.3248 198.558 87.7452 199.486 83.2246L216.988 0.347576H218.147L235.534 83.2246C236.577 87.977 236.345 88.4407 238.779 90.0635ZM220.813 63.7517L213.511 27.935L207.367 63.7517H220.813Z" fill="black"/>
<path d="M275.06 67.1132H276.219V93.3091C270.076 92.7295 263.933 92.4977 258.948 92.4977H239.939V90.0635C245.271 89.0203 245.503 88.9043 245.503 85.4269V12.6344C245.503 9.15701 245.271 9.04109 239.939 7.99787V5.56369H264.049V7.99787C256.398 9.04109 256.167 9.15701 256.167 12.6344V89.7157H265.208C268.106 89.7157 268.337 89.368 269.265 86.4702L275.06 67.1132ZM310.877 58.7674V61.2016H290.476V58.7674C297.083 58.0719 297.431 58.1878 294.649 51.9285L288.622 38.4825L283.406 51.9285C280.972 58.3038 281.552 58.0719 286.42 58.7674V61.2016H272.394V58.7674C276.567 57.7242 276.22 57.1446 278.886 51.9285L287.347 35.5847L278.074 14.8368C275.756 9.62066 275.292 9.15701 272.163 7.99787V5.56369H292.563V7.99787C285.261 8.69335 285.609 8.57744 288.39 14.8368L294.766 29.0941L299.633 14.8368C301.836 8.46152 301.488 8.69335 296.62 7.99787V5.56369H310.645V7.99787C306.472 9.04109 306.588 9.62066 304.154 14.8368L296.041 31.992L304.966 51.9285C307.283 57.1446 307.747 57.6083 310.877 58.7674Z" fill="black"/>
<path d="M314.355 49.0306C314.355 18.6619 321.889 3.94086 334.871 3.94086C339.739 3.94086 343.681 5.91138 346.231 8.46148V31.5277H345.072C338.001 10.8951 336.494 6.49037 332.785 6.49037C327.569 6.49037 325.715 19.9363 325.715 48.2187C325.715 72.444 329.888 91.3379 334.639 91.3379C337.537 91.3379 338.233 89.0196 345.072 66.533H346.231V89.368C343.797 91.8022 339.508 93.8886 334.871 93.8886C321.889 93.8886 314.355 80.3267 314.355 49.0306Z" fill="black"/>
<path d="M400.593 90.0635V92.4977H378.802V90.0635C384.134 89.0203 384.365 88.9043 384.365 85.4269V50.6535H367.674V85.4269C367.674 88.9043 367.906 89.0203 373.238 90.0635V92.4977H351.447V90.0635C356.779 89.0203 357.01 88.9043 357.01 85.4269V12.6344C357.01 9.15701 356.779 9.04109 351.447 7.99787V5.56369H373.238V7.99787C367.906 9.04109 367.674 9.15701 367.674 12.6344V47.1761H384.365V12.6344C384.365 9.15701 384.134 9.04109 378.802 7.99787V5.56369H400.593V7.99787C395.261 9.04109 395.029 9.15701 395.029 12.6344V85.4269C395.03 88.9043 395.261 89.0203 400.593 90.0635Z" fill="black"/>
<path d="M443.132 90.0635V92.4977H422.616V90.0635C430.499 89.1362 430.499 89.8317 429.108 83.2246L425.862 66.9967H411.141L408.359 83.2246C407.2 89.8317 407.548 89.1362 415.546 90.0635V92.4977H400.593V90.0635C403.143 88.3248 402.911 87.7452 403.838 83.2246L421.341 0.347576H422.5L439.887 83.2246C440.93 87.977 440.699 88.4407 443.132 90.0635ZM425.166 63.7517L417.864 27.935L411.72 63.7517H425.166Z" fill="black"/>
<path d="M488.223 5.56379V7.99797C482.891 9.04119 482.659 9.15711 482.659 12.6345L482.427 96.4389H481.268L452.754 31.6443L454.261 85.4276C454.377 88.9051 454.493 89.021 462.143 90.0642V92.4984H444.293V90.0642C449.625 89.021 449.857 88.9051 449.857 85.4276L450.088 1.62331H451.248L479.762 66.3025L478.254 12.6351C478.139 9.15769 478.023 9.04177 470.372 7.99855V5.56436H488.223V5.56379Z" fill="black"/>
<path d="M491.12 49.0306C491.12 19.821 499.35 3.94086 513.492 3.94086C518.243 3.94086 523.344 6.0273 526.01 8.46148V31.5277H524.851C518.012 8.69331 515.23 6.49037 511.521 6.49037C505.841 6.49037 502.248 16.4589 502.248 49.9574C502.248 82.9921 508.739 91.3379 512.912 91.3379C513.839 91.3379 514.651 90.9902 515.23 90.2947C515.925 89.4833 516.273 88.0923 516.273 86.0059V57.4918C516.273 54.0143 516.042 53.8984 507.928 52.8552V50.421H529.951V52.8552C525.778 53.8984 525.547 54.0143 525.547 57.4918V79.5153C525.547 81.8336 525.662 82.9927 526.241 87.6293C522.069 91.8022 517.2 93.8886 512.796 93.8886C499.814 93.8886 491.12 79.1676 491.12 49.0306Z" fill="black"/>
<path d="M548.497 8.34559V47.0601H561.479V50.5375H548.497V89.7157H554.64C557.538 89.7157 557.77 89.368 558.697 86.4701L564.841 66.5336H566V93.309C559.857 92.7295 553.713 92.4977 549.888 92.4977H532.269V90.0635C537.601 89.0202 537.833 88.9043 537.833 85.4269V12.6344C537.833 9.15699 537.602 9.04107 532.269 7.99785V5.56367H549.887C553.713 5.56367 559.856 5.33184 565.999 4.75227V31.5277H564.84L558.697 11.5912C557.769 8.69333 557.538 8.34559 554.64 8.34559H548.497Z" fill="black"/>
</svg>
