<svg xmlns="http://www.w3.org/2000/svg" width="107.257" height="107.257" viewBox="0 0 107.257 107.257">
  <rect y="30" width="100%" height="80%" fill="#edff38" />
  <rect x="35" y="0" width="35%" height="80%" fill="#edff38" />
  <g transform="translate(0)">
    <path d="M74.282,25.18V0H33.107V25.18H0v82.077H107.257V25.18Zm-34.89-18.9H68V37.749H39.392Zm61.581,94.688H6.285v-31.8h94.688Zm0-38.085H6.285V56.6h94.688ZM6.285,50.319V31.465H33.107v6.285H26.1v6.285H81.132V37.749h-6.85V31.465h26.69V50.319Z" transform="translate(0)" fill="#000"/>
    <path d="M209.795,74.387l-4.94-4.94-4.444,4.444,9.384,9.384,14.437-14.437-4.444-4.444Z" transform="translate(-158.428 -50.904)" fill="#000"/>
    <path d="M78.241,375.835l7.939-21.6H79.944l-4.167,14.144-4.228-14.144H65.283l8.03,21.6Z" transform="translate(-51.607 -280.031)" fill="#000"/>
    <path d="M163.939,368.623a11.22,11.22,0,0,0,2.22,3.513,11.053,11.053,0,0,0,3.437,2.479,10.388,10.388,0,0,0,4.471.943,10.638,10.638,0,0,0,4.426-.913,11.22,11.22,0,0,0,3.483-2.418,11.083,11.083,0,0,0,2.281-3.468,10.49,10.49,0,0,0,.821-4.091,10.994,10.994,0,0,0-.775-4.045A11.2,11.2,0,0,0,182.1,357.1a10.951,10.951,0,0,0-3.437-2.494,10.391,10.391,0,0,0-4.471-.943,10.8,10.8,0,0,0-4.426.9,11.191,11.191,0,0,0-3.5,2.4,10.9,10.9,0,0,0-2.3,3.483,10.607,10.607,0,0,0-.821,4.106,10.861,10.861,0,0,0,.791,4.076Zm5.52-6.1a5.478,5.478,0,0,1,.9-1.825,4.536,4.536,0,0,1,1.536-1.293,4.691,4.691,0,0,1,2.205-.487,4.743,4.743,0,0,1,2.175.472,4.687,4.687,0,0,1,1.551,1.247,5.217,5.217,0,0,1,.928,1.794,7.36,7.36,0,0,1,.3,2.114,7.766,7.766,0,0,1-.289,2.1,5.634,5.634,0,0,1-.882,1.84,4.5,4.5,0,0,1-1.536,1.308,5.2,5.2,0,0,1-4.426.015,4.6,4.6,0,0,1-1.536-1.277,5.508,5.508,0,0,1-.912-1.81,7.343,7.343,0,0,1-.3-2.114,7.608,7.608,0,0,1,.289-2.084Z" transform="translate(-128.971 -279.571)" fill="#000"/>
    <path d="M277.12,375.835h5.931V359.41h6.2v-5.171H270.885v5.171h6.235Z" transform="translate(-214.138 -280.031)" fill="#000"/>
    <path d="M384.284,370.664h-9.46v-3.407h7.848v-4.806h-7.848V359.41h9.186v-5.171H368.893v21.6h15.391Z" transform="translate(-291.615 -280.031)" fill="#000"/>
  </g>
</svg>
